<mxfile host="app.diagrams.net" modified="2021-12-22T12:06:12.928Z" agent="5.0 (Windows NT 10.0; Win64; x64) AppleWebKit/537.36 (KHTML, like Gecko) Chrome/96.0.4664.110 Safari/537.36" etag="7aHZfpzLf9XDBDR-D2vD" version="16.0.3" type="github">
  <diagram id="-QOZ_sxLCyhjPNDoqX9F" name="Page-1">
    <mxGraphModel dx="1185" dy="614" grid="1" gridSize="10" guides="1" tooltips="1" connect="1" arrows="1" fold="1" page="1" pageScale="1" pageWidth="827" pageHeight="1169" math="0" shadow="0">
      <root>
        <mxCell id="0" />
        <mxCell id="1" parent="0" />
        <mxCell id="6HMjBxJhy-TPOpPPP0Cd-1" value="&lt;font style=&quot;vertical-align: inherit&quot;&gt;&lt;font style=&quot;vertical-align: inherit&quot;&gt;Начало&lt;/font&gt;&lt;/font&gt;" style="ellipse;whiteSpace=wrap;html=1;" vertex="1" parent="1">
          <mxGeometry x="420" y="40" width="120" height="80" as="geometry" />
        </mxCell>
        <mxCell id="6HMjBxJhy-TPOpPPP0Cd-2" value="" style="endArrow=classic;html=1;rounded=0;exitX=0.5;exitY=1;exitDx=0;exitDy=0;" edge="1" parent="1" source="6HMjBxJhy-TPOpPPP0Cd-1" target="6HMjBxJhy-TPOpPPP0Cd-3">
          <mxGeometry width="50" height="50" relative="1" as="geometry">
            <mxPoint x="420" y="400" as="sourcePoint" />
            <mxPoint x="474" y="220" as="targetPoint" />
          </mxGeometry>
        </mxCell>
        <mxCell id="6HMjBxJhy-TPOpPPP0Cd-3" value="&lt;font style=&quot;vertical-align: inherit&quot;&gt;&lt;font style=&quot;vertical-align: inherit&quot;&gt;&lt;font style=&quot;vertical-align: inherit&quot;&gt;&lt;font style=&quot;vertical-align: inherit&quot;&gt;int [] массив&lt;/font&gt;&lt;/font&gt;&lt;/font&gt;&lt;/font&gt;" style="shape=parallelogram;perimeter=parallelogramPerimeter;whiteSpace=wrap;html=1;fixedSize=1;" vertex="1" parent="1">
          <mxGeometry x="420" y="160" width="120" height="60" as="geometry" />
        </mxCell>
        <mxCell id="6HMjBxJhy-TPOpPPP0Cd-8" value="" style="endArrow=classic;html=1;rounded=0;exitX=0.5;exitY=1;exitDx=0;exitDy=0;" edge="1" parent="1" source="6HMjBxJhy-TPOpPPP0Cd-3" target="6HMjBxJhy-TPOpPPP0Cd-9">
          <mxGeometry width="50" height="50" relative="1" as="geometry">
            <mxPoint x="420" y="300" as="sourcePoint" />
            <mxPoint x="470" y="280" as="targetPoint" />
          </mxGeometry>
        </mxCell>
        <mxCell id="6HMjBxJhy-TPOpPPP0Cd-9" value="&lt;font style=&quot;vertical-align: inherit&quot;&gt;&lt;font style=&quot;vertical-align: inherit&quot;&gt;&amp;nbsp;i = 0; i&amp;lt;array.length;i++&lt;/font&gt;&lt;/font&gt;" style="shape=hexagon;perimeter=hexagonPerimeter2;whiteSpace=wrap;html=1;fixedSize=1;" vertex="1" parent="1">
          <mxGeometry x="375" y="280" width="210" height="80" as="geometry" />
        </mxCell>
        <mxCell id="6HMjBxJhy-TPOpPPP0Cd-10" value="" style="endArrow=none;html=1;rounded=0;entryX=1;entryY=0.5;entryDx=0;entryDy=0;" edge="1" parent="1" target="6HMjBxJhy-TPOpPPP0Cd-9">
          <mxGeometry width="50" height="50" relative="1" as="geometry">
            <mxPoint x="720" y="320" as="sourcePoint" />
            <mxPoint x="470" y="410" as="targetPoint" />
          </mxGeometry>
        </mxCell>
        <mxCell id="6HMjBxJhy-TPOpPPP0Cd-13" value="" style="endArrow=classic;html=1;rounded=0;exitX=0.5;exitY=1;exitDx=0;exitDy=0;entryX=0.5;entryY=0;entryDx=0;entryDy=0;" edge="1" parent="1" source="6HMjBxJhy-TPOpPPP0Cd-9" target="6HMjBxJhy-TPOpPPP0Cd-14">
          <mxGeometry width="50" height="50" relative="1" as="geometry">
            <mxPoint x="440" y="460" as="sourcePoint" />
            <mxPoint x="474" y="430" as="targetPoint" />
          </mxGeometry>
        </mxCell>
        <mxCell id="6HMjBxJhy-TPOpPPP0Cd-14" value="&lt;font style=&quot;vertical-align: inherit&quot;&gt;&lt;font style=&quot;vertical-align: inherit&quot;&gt;&amp;nbsp;j = 0; j &amp;lt; array.length - i&amp;nbsp; - 1; j++&lt;/font&gt;&lt;/font&gt;" style="shape=hexagon;perimeter=hexagonPerimeter2;whiteSpace=wrap;html=1;fixedSize=1;" vertex="1" parent="1">
          <mxGeometry x="375" y="420" width="210" height="80" as="geometry" />
        </mxCell>
        <mxCell id="6HMjBxJhy-TPOpPPP0Cd-15" value="" style="endArrow=classic;html=1;rounded=0;exitX=0.5;exitY=1;exitDx=0;exitDy=0;" edge="1" parent="1" source="6HMjBxJhy-TPOpPPP0Cd-14" target="6HMjBxJhy-TPOpPPP0Cd-16">
          <mxGeometry width="50" height="50" relative="1" as="geometry">
            <mxPoint x="440" y="460" as="sourcePoint" />
            <mxPoint x="474" y="580" as="targetPoint" />
          </mxGeometry>
        </mxCell>
        <mxCell id="6HMjBxJhy-TPOpPPP0Cd-16" value="array[j] &amp;gt; array[j + 1]" style="rhombus;whiteSpace=wrap;html=1;" vertex="1" parent="1">
          <mxGeometry x="405" y="550" width="150" height="100" as="geometry" />
        </mxCell>
        <mxCell id="6HMjBxJhy-TPOpPPP0Cd-18" value="" style="endArrow=classic;html=1;rounded=0;exitX=0.5;exitY=1;exitDx=0;exitDy=0;" edge="1" parent="1" source="6HMjBxJhy-TPOpPPP0Cd-16" target="6HMjBxJhy-TPOpPPP0Cd-19">
          <mxGeometry width="50" height="50" relative="1" as="geometry">
            <mxPoint x="440" y="620" as="sourcePoint" />
            <mxPoint x="474" y="720" as="targetPoint" />
          </mxGeometry>
        </mxCell>
        <mxCell id="6HMjBxJhy-TPOpPPP0Cd-19" value="buf = array[j]" style="rounded=0;whiteSpace=wrap;html=1;" vertex="1" parent="1">
          <mxGeometry x="420" y="690" width="120" height="40" as="geometry" />
        </mxCell>
        <mxCell id="6HMjBxJhy-TPOpPPP0Cd-20" value="" style="endArrow=classic;html=1;rounded=0;exitX=0.5;exitY=1;exitDx=0;exitDy=0;entryX=0.5;entryY=0;entryDx=0;entryDy=0;" edge="1" parent="1" source="6HMjBxJhy-TPOpPPP0Cd-19" target="6HMjBxJhy-TPOpPPP0Cd-21">
          <mxGeometry width="50" height="50" relative="1" as="geometry">
            <mxPoint x="440" y="710" as="sourcePoint" />
            <mxPoint x="474" y="770" as="targetPoint" />
          </mxGeometry>
        </mxCell>
        <mxCell id="6HMjBxJhy-TPOpPPP0Cd-21" value="array[j] = array [j +1]" style="rounded=0;whiteSpace=wrap;html=1;" vertex="1" parent="1">
          <mxGeometry x="420" y="770" width="120" height="40" as="geometry" />
        </mxCell>
        <mxCell id="6HMjBxJhy-TPOpPPP0Cd-23" value="" style="endArrow=classic;html=1;rounded=0;exitX=0.5;exitY=1;exitDx=0;exitDy=0;" edge="1" parent="1" source="6HMjBxJhy-TPOpPPP0Cd-21" target="6HMjBxJhy-TPOpPPP0Cd-24">
          <mxGeometry width="50" height="50" relative="1" as="geometry">
            <mxPoint x="440" y="710" as="sourcePoint" />
            <mxPoint x="474" y="860" as="targetPoint" />
          </mxGeometry>
        </mxCell>
        <mxCell id="6HMjBxJhy-TPOpPPP0Cd-24" value="array[j+1] = buf" style="rounded=0;whiteSpace=wrap;html=1;" vertex="1" parent="1">
          <mxGeometry x="420" y="830" width="120" height="40" as="geometry" />
        </mxCell>
        <mxCell id="6HMjBxJhy-TPOpPPP0Cd-25" value="" style="endArrow=none;html=1;rounded=0;entryX=0.5;entryY=1;entryDx=0;entryDy=0;" edge="1" parent="1" target="6HMjBxJhy-TPOpPPP0Cd-24">
          <mxGeometry width="50" height="50" relative="1" as="geometry">
            <mxPoint x="480" y="930" as="sourcePoint" />
            <mxPoint x="490" y="740" as="targetPoint" />
          </mxGeometry>
        </mxCell>
        <mxCell id="6HMjBxJhy-TPOpPPP0Cd-26" value="" style="endArrow=none;html=1;rounded=0;" edge="1" parent="1">
          <mxGeometry width="50" height="50" relative="1" as="geometry">
            <mxPoint x="320" y="930" as="sourcePoint" />
            <mxPoint x="480" y="930" as="targetPoint" />
          </mxGeometry>
        </mxCell>
        <mxCell id="6HMjBxJhy-TPOpPPP0Cd-28" value="" style="endArrow=none;html=1;rounded=0;" edge="1" parent="1">
          <mxGeometry width="50" height="50" relative="1" as="geometry">
            <mxPoint x="320" y="930" as="sourcePoint" />
            <mxPoint x="320" y="460" as="targetPoint" />
          </mxGeometry>
        </mxCell>
        <mxCell id="6HMjBxJhy-TPOpPPP0Cd-30" value="" style="endArrow=classic;html=1;rounded=0;entryX=0;entryY=0.5;entryDx=0;entryDy=0;" edge="1" parent="1" target="6HMjBxJhy-TPOpPPP0Cd-14">
          <mxGeometry width="50" height="50" relative="1" as="geometry">
            <mxPoint x="320" y="460" as="sourcePoint" />
            <mxPoint x="330" y="560" as="targetPoint" />
          </mxGeometry>
        </mxCell>
        <mxCell id="6HMjBxJhy-TPOpPPP0Cd-31" value="" style="endArrow=none;html=1;rounded=0;exitX=1;exitY=0.5;exitDx=0;exitDy=0;" edge="1" parent="1" source="6HMjBxJhy-TPOpPPP0Cd-14">
          <mxGeometry width="50" height="50" relative="1" as="geometry">
            <mxPoint x="560" y="610" as="sourcePoint" />
            <mxPoint x="640" y="460" as="targetPoint" />
          </mxGeometry>
        </mxCell>
        <mxCell id="6HMjBxJhy-TPOpPPP0Cd-32" value="" style="endArrow=none;html=1;rounded=0;" edge="1" parent="1">
          <mxGeometry width="50" height="50" relative="1" as="geometry">
            <mxPoint x="640" y="960" as="sourcePoint" />
            <mxPoint x="640" y="460" as="targetPoint" />
          </mxGeometry>
        </mxCell>
        <mxCell id="6HMjBxJhy-TPOpPPP0Cd-33" value="" style="endArrow=none;html=1;rounded=0;" edge="1" parent="1">
          <mxGeometry width="50" height="50" relative="1" as="geometry">
            <mxPoint x="280" y="960" as="sourcePoint" />
            <mxPoint x="640" y="960" as="targetPoint" />
          </mxGeometry>
        </mxCell>
        <mxCell id="6HMjBxJhy-TPOpPPP0Cd-34" value="" style="endArrow=none;html=1;rounded=0;" edge="1" parent="1">
          <mxGeometry width="50" height="50" relative="1" as="geometry">
            <mxPoint x="280" y="960" as="sourcePoint" />
            <mxPoint x="280" y="320" as="targetPoint" />
          </mxGeometry>
        </mxCell>
        <mxCell id="6HMjBxJhy-TPOpPPP0Cd-35" value="" style="endArrow=classic;html=1;rounded=0;entryX=0;entryY=0.5;entryDx=0;entryDy=0;" edge="1" parent="1" target="6HMjBxJhy-TPOpPPP0Cd-9">
          <mxGeometry width="50" height="50" relative="1" as="geometry">
            <mxPoint x="280" y="320" as="sourcePoint" />
            <mxPoint x="230" y="550" as="targetPoint" />
          </mxGeometry>
        </mxCell>
        <mxCell id="6HMjBxJhy-TPOpPPP0Cd-36" value="" style="endArrow=none;html=1;rounded=0;" edge="1" parent="1">
          <mxGeometry width="50" height="50" relative="1" as="geometry">
            <mxPoint x="720" y="1000" as="sourcePoint" />
            <mxPoint x="720" y="320" as="targetPoint" />
          </mxGeometry>
        </mxCell>
        <mxCell id="6HMjBxJhy-TPOpPPP0Cd-37" value="" style="endArrow=none;html=1;rounded=0;" edge="1" parent="1">
          <mxGeometry width="50" height="50" relative="1" as="geometry">
            <mxPoint x="479.1666666666667" y="1000" as="sourcePoint" />
            <mxPoint x="720" y="1000" as="targetPoint" />
          </mxGeometry>
        </mxCell>
        <mxCell id="6HMjBxJhy-TPOpPPP0Cd-38" value="" style="endArrow=classic;html=1;rounded=0;" edge="1" parent="1" target="6HMjBxJhy-TPOpPPP0Cd-39">
          <mxGeometry width="50" height="50" relative="1" as="geometry">
            <mxPoint x="480" y="1000" as="sourcePoint" />
            <mxPoint x="480" y="1030" as="targetPoint" />
          </mxGeometry>
        </mxCell>
        <mxCell id="6HMjBxJhy-TPOpPPP0Cd-39" value="int [] array" style="shape=parallelogram;perimeter=parallelogramPerimeter;whiteSpace=wrap;html=1;fixedSize=1;" vertex="1" parent="1">
          <mxGeometry x="420" y="1020" width="120" height="30" as="geometry" />
        </mxCell>
        <mxCell id="6HMjBxJhy-TPOpPPP0Cd-40" value="" style="endArrow=classic;html=1;rounded=0;exitX=0.5;exitY=1;exitDx=0;exitDy=0;" edge="1" parent="1" source="6HMjBxJhy-TPOpPPP0Cd-39" target="6HMjBxJhy-TPOpPPP0Cd-41">
          <mxGeometry width="50" height="50" relative="1" as="geometry">
            <mxPoint x="440" y="1010" as="sourcePoint" />
            <mxPoint x="480" y="1080" as="targetPoint" />
          </mxGeometry>
        </mxCell>
        <mxCell id="6HMjBxJhy-TPOpPPP0Cd-41" value="Конец" style="ellipse;whiteSpace=wrap;html=1;" vertex="1" parent="1">
          <mxGeometry x="420" y="1080" width="120" height="40" as="geometry" />
        </mxCell>
      </root>
    </mxGraphModel>
  </diagram>
</mxfile>
